Coordinates
version=1
nRows=34
nColumns=38
inDegrees=no

Units are S.I. units (second, meters, Newtons, ...)
If the header above contains a line with 'inDegrees', this indicates whether rotational values are in degrees (yes) or radians (no).

endheader
time	pelvis_tilt	pelvis_list	pelvis_rotation	pelvis_tx	pelvis_ty	pelvis_tz	hip_flexion_r	hip_adduction_r	hip_rotation_r	knee_angle_r	ankle_angle_r	subtalar_angle_r	mtp_angle_r	hip_flexion_l	hip_adduction_l	hip_rotation_l	knee_angle_l	ankle_angle_l	subtalar_angle_l	mtp_angle_l	lumbar_extension	lumbar_bending	lumbar_rotation	arm_flex_r	arm_add_r	arm_rot_r	elbow_flex_r	pro_sup_r	wrist_flex_r	wrist_dev_r	arm_flex_l	arm_add_l	arm_rot_l	elbow_flex_l	pro_sup_l	wrist_flex_l	wrist_dev_l
15	2.542	1.40971	-0.923389	0.697704	1.08553	0.954735	0.0100875	0.0467718	-0.207328	0.405173	-0.317088	0	0	0.0323107	-0.0913126	0.20122	0.529779	-0.170093	0	0	-0.610995	0.260504	0.0283621	-0.270687	-0.215134	-0.242433	1.39249	1.5708	0	0	-0.0962467	-0.133338	-0.136986	0.905473	1.5708	0	0
15.01	2.54363	1.41039	-0.925506	0.697376	1.08601	0.954691	0.0103061	0.0452418	-0.209011	0.406129	-0.316931	0	0	0.0308966	-0.0906435	0.198446	0.527363	-0.170215	0	0	-0.608261	0.26017	0.0269477	-0.269501	-0.220347	-0.238508	1.39892	1.5708	0	0	-0.0997121	-0.135007	-0.137241	0.919413	1.5708	0	0
15.02	2.54608	1.41069	-0.928415	0.697155	1.08646	0.954685	0.00994807	0.0439547	-0.210885	0.406731	-0.316812	0	0	0.029027	-0.0901933	0.196259	0.524722	-0.170301	0	0	-0.605719	0.259644	0.0258583	-0.267964	-0.225193	-0.234593	1.4055	1.5708	0	0	-0.102897	-0.137482	-0.136877	0.933984	1.5708	0	0
15.03	2.54973	1.41078	-0.932425	0.697061	1.08691	0.954718	0.0091809	0.042878	-0.21274	0.407043	-0.316674	0	0	0.026702	-0.0898482	0.194863	0.521839	-0.170348	0	0	-0.60323	0.258938	0.0249965	-0.266069	-0.229741	-0.230442	1.41195	1.5708	0	0	-0.105579	-0.140604	-0.135886	0.949108	1.5708	0	0
15.04	2.55442	1.41067	-0.937332	0.697039	1.08735	0.954783	0.00812338	0.0419655	-0.21454	0.407264	-0.316539	0	0	0.0240667	-0.0895173	0.194019	0.518962	-0.17033	0	0	-0.600769	0.258195	0.0241688	-0.263631	-0.234366	-0.22624	1.41839	1.5708	0	0	-0.107572	-0.144137	-0.134573	0.964137	1.5708	0	0
15.05	2.55961	1.41035	-0.942609	0.697048	1.08779	0.954865	0.00683086	0.0412414	-0.216122	0.407597	-0.316475	0	0	0.0212557	-0.0892464	0.193472	0.516377	-0.17021	0	0	-0.598182	0.257423	0.0235686	-0.260676	-0.239514	-0.22153	1.42455	1.5708	0	0	-0.108489	-0.147912	-0.13289	0.978447	1.5708	0	0
15.06	2.56447	1.41003	-0.94755	0.697073	1.08824	0.954949	0.0055516	0.04065	-0.217033	0.407939	-0.316476	0	0	0.0184736	-0.088954	0.193011	0.513912	-0.170023	0	0	-0.59531	0.256636	0.0232576	-0.257314	-0.2448	-0.216292	1.43042	1.5708	0	0	-0.108043	-0.151675	-0.131157	0.991264	1.5708	0	0
15.07	2.56875	1.41003	-0.951814	0.697073	1.08866	0.955024	0.00454448	0.0399743	-0.217043	0.407908	-0.316397	0	0	0.0161957	-0.0883976	0.192856	0.511656	-0.169885	0	0	-0.592041	0.255786	0.0229393	-0.253466	-0.249858	-0.210651	1.43632	1.5708	0	0	-0.10638	-0.155302	-0.129581	1.00189	1.5708	0	0
15.08	2.57251	1.41017	-0.955332	0.697072	1.08905	0.955095	0.00367777	0.039332	-0.216661	0.407682	-0.316169	0	0	0.0143418	-0.0877731	0.193192	0.509673	-0.169991	0	0	-0.588648	0.254941	0.0220338	-0.24865	-0.254542	-0.204186	1.44172	1.5708	0	0	-0.104159	-0.158983	-0.128027	1.01025	1.5708	0	0
15.09	2.57492	1.41048	-0.956873	0.697164	1.0895	0.955147	0.00292581	0.0390648	-0.217164	0.407351	-0.315803	0	0	0.0129671	-0.0876183	0.193773	0.507875	-0.170433	0	0	-0.584729	0.254071	0.0197988	-0.242615	-0.258376	-0.197705	1.44528	1.5708	0	0	-0.102382	-0.162724	-0.126352	1.01712	1.5708	0	0
15.1	2.57721	1.41063	-0.958619	0.697343	1.08996	0.955179	0.00213457	0.0390575	-0.217472	0.407184	-0.315677	0	0	0.0114215	-0.0877974	0.193578	0.506106	-0.170044	0	0	-0.582525	0.253254	0.0280744	-0.2466	-0.258659	-0.205675	1.45573	1.5708	0	0	-0.0932044	-0.166995	-0.112066	1.01753	1.5708	0	0
15.11	2.58055	1.41074	-0.961598	0.697492	1.09041	0.955238	0.000837954	0.0391419	-0.216539	0.406037	-0.315245	0	0	0.00961123	-0.0876885	0.193267	0.503844	-0.170489	0	0	-0.579411	0.251863	0.0270226	-0.24036	-0.262976	-0.201279	1.45656	1.5708	0	0	-0.0905133	-0.169433	-0.107507	1.01968	1.5708	0	0
15.12	2.58587	1.41045	-0.966951	0.697623	1.09081	0.955331	-0.000970219	0.0389773	-0.215574	0.404913	-0.314948	0	0	0.00721493	-0.0874648	0.192216	0.501596	-0.170836	0	0	-0.577147	0.250444	0.0260078	-0.233433	-0.267625	-0.196122	1.45415	1.5708	0	0	-0.0867987	-0.170698	-0.104511	1.0193	1.5708	0	0
15.13	2.59274	1.41005	-0.974063	0.697762	1.09122	0.955492	-0.00320909	0.0383465	-0.215313	0.403403	-0.315501	0	0	0.00420178	-0.0870824	0.190579	0.498521	-0.172474	0	0	-0.57186	0.248177	0.00352762	-0.203418	-0.277966	-0.161732	1.4304	1.5708	0	0	-0.0975324	-0.169361	-0.126762	1.02577	1.5708	0	0
15.14	2.60146	1.40894	-0.982658	0.697934	1.09159	0.955641	-0.00616067	0.0377176	-0.215872	0.402315	-0.315467	0	0	0.000765093	-0.0870448	0.188623	0.496277	-0.172713	0	0	-0.570646	0.246645	-0.000416352	-0.193251	-0.280613	-0.153768	1.42226	1.5708	0	0	-0.0946777	-0.171351	-0.1272	1.02595	1.5708	0	0
15.15	2.608	1.40796	-0.988643	0.698152	1.09196	0.95575	-0.00899298	0.0377849	-0.216341	0.400789	-0.315146	0	0	-0.00214967	-0.0874275	0.187155	0.494208	-0.172855	0	0	-0.569345	0.2453	-0.00428957	-0.182949	-0.282303	-0.146973	1.4144	1.5708	0	0	-0.0922003	-0.174028	-0.126409	1.02789	1.5708	0	0
15.16	2.61265	1.40719	-0.993043	0.698377	1.0923	0.955816	-0.01132	0.0382514	-0.216451	0.399283	-0.314663	0	0	-0.00466978	-0.0878721	0.185922	0.492307	-0.172786	0	0	-0.568129	0.24401	-0.00711495	-0.172601	-0.284524	-0.140701	1.40754	1.5708	0	0	-0.089752	-0.176216	-0.125482	1.03079	1.5708	0	0
15.17	2.61589	1.40656	-0.996379	0.698599	1.09261	0.955871	-0.0132235	0.038831	-0.216291	0.397932	-0.314307	0	0	-0.00693786	-0.0882354	0.184991	0.490556	-0.172427	0	0	-0.566983	0.242931	-0.00895069	-0.162686	-0.286837	-0.134759	1.40206	1.5708	0	0	-0.0868453	-0.177569	-0.125402	1.03344	1.5708	0	0
15.18	2.61736	1.40592	-0.997891	0.698828	1.09288	0.955926	-0.0149243	0.0394648	-0.216257	0.396767	-0.314137	0	0	-0.0089152	-0.0887915	0.184607	0.489036	-0.171789	0	0	-0.565788	0.242303	-0.0101747	-0.153124	-0.289271	-0.128607	1.39736	1.5708	0	0	-0.0835206	-0.178692	-0.125614	1.0359	1.5708	0	0
15.19	2.6177	1.40522	-0.997672	0.699086	1.09316	0.955998	-0.0166736	0.0399644	-0.217458	0.395731	-0.314024	0	0	-0.0105973	-0.0896512	0.185052	0.487743	-0.171345	0	0	-0.564425	0.242073	-0.0115782	-0.143593	-0.291233	-0.122709	1.39255	1.5708	0	0	-0.0799819	-0.180273	-0.125411	1.03852	1.5708	0	0
15.2	2.61841	1.40459	-0.997748	0.699316	1.0934	0.956066	-0.0182046	0.0400695	-0.219051	0.395025	-0.313975	0	0	-0.0120587	-0.0903199	0.185734	0.486691	-0.171346	0	0	-0.562934	0.241756	-0.012941	-0.133902	-0.293309	-0.116748	1.38744	1.5708	0	0	-0.0758939	-0.182268	-0.124634	1.04099	1.5708	0	0
15.21	2.61948	1.4041	-0.998238	0.699502	1.09359	0.956112	-0.0193317	0.0398404	-0.220583	0.394818	-0.314037	0	0	-0.0133482	-0.0907331	0.186584	0.485773	-0.171552	0	0	-0.561234	0.241365	-0.0141934	-0.123969	-0.295636	-0.110965	1.38163	1.5708	0	0	-0.0709584	-0.184279	-0.123631	1.04233	1.5708	0	0
15.22	2.62154	1.40386	-0.999716	0.699669	1.09372	0.956125	-0.0200077	0.0395616	-0.221872	0.394886	-0.313933	0	0	-0.0144591	-0.0908092	0.18753	0.484757	-0.171812	0	0	-0.559349	0.240791	-0.0153521	-0.113915	-0.297862	-0.105537	1.37526	1.5708	0	0	-0.0649272	-0.185987	-0.122415	1.04145	1.5708	0	0
15.23	2.62523	1.40357	-1.0028	0.69984	1.09379	0.95614	-0.020747	0.0392539	-0.22276	0.395002	-0.313539	0	0	-0.015478	-0.0907154	0.188148	0.484159	-0.171903	0	0	-0.557852	0.240002	-0.0163233	-0.103755	-0.299894	-0.100241	1.36864	1.5708	0	0	-0.0578905	-0.187507	-0.120799	1.03861	1.5708	0	0
15.24	2.6291	1.40318	-1.00577	0.700077	1.09388	0.956159	-0.0216078	0.0391083	-0.223939	0.395165	-0.312865	0	0	-0.0162891	-0.0909694	0.188181	0.483924	-0.171921	0	0	-0.556806	0.23911	-0.0171453	-0.0937081	-0.301711	-0.094947	1.36229	1.5708	0	0	-0.0504509	-0.189159	-0.118604	1.03543	1.5708	0	0
15.25	2.63418	1.40233	-1.00957	0.700245	1.09392	0.956204	-0.0227707	0.0389161	-0.225813	0.395978	-0.311509	0	0	-0.0173425	-0.0913059	0.188334	0.483979	-0.171967	0	0	-0.556129	0.238355	-0.0183826	-0.0826488	-0.303332	-0.0895742	1.35542	1.5708	0	0	-0.0425607	-0.191266	-0.115336	1.03228	1.5708	0	0
15.26	2.63929	1.40151	-1.01305	0.700328	1.09391	0.956226	-0.0237736	0.0388335	-0.227502	0.397037	-0.309493	0	0	-0.0179735	-0.091508	0.188778	0.48453	-0.17199	0	0	-0.556117	0.237798	-0.0190493	-0.072338	-0.304937	-0.0853573	1.35016	1.5708	0	0	-0.0342651	-0.192931	-0.112233	1.02993	1.5708	0	0
15.27	2.64367	1.40116	-1.01584	0.700462	1.0939	0.956199	-0.0241878	0.0390593	-0.228531	0.398558	-0.305199	0	0	-0.0178412	-0.0916519	0.188804	0.485528	-0.171727	0	0	-0.55524	0.237399	-0.0192981	-0.0619964	-0.306296	-0.0813985	1.34484	1.5708	0	0	-0.0246633	-0.19441	-0.109106	1.02547	1.5708	0	0
15.28	2.68216	1.40514	-1.05155	0.701408	1.09461	0.954935	-0.014872	0.0292522	-0.229454	0.426539	-0.293966	0	0	-0.016678	-0.0859865	0.185397	0.488068	-0.169726	0	0	-0.550755	0.228903	-0.0148437	-0.0647304	-0.302797	-0.0910412	1.34814	1.5708	0	0	-0.0107913	-0.201516	-0.0929755	1.0208	1.5708	0	0
15.29	2.65556	1.39955	-1.02456	0.700775	1.09385	0.956244	-0.0270759	0.0392819	-0.228215	0.398532	-0.304108	0	0	-0.0183307	-0.0921015	0.187865	0.487982	-0.172094	0	0	-0.556227	0.236516	-0.0128644	-0.0483093	-0.308976	-0.0821452	1.34096	1.5708	0	0	0.000917454	-0.19842	-0.0947847	1.01445	1.5708	0	0
15.3	2.66064	1.3985	-1.02785	0.700893	1.09378	0.956259	-0.0288484	0.0399787	-0.22801	0.397616	-0.306486	0	0	-0.0186058	-0.0925476	0.187633	0.48926	-0.172596	0	0	-0.557022	0.236461	-0.0135711	-0.0372321	-0.31096	-0.0768139	1.33624	1.5708	0	0	0.0104855	-0.200546	-0.0925082	1.01239	1.5708	0	0
15.31	2.66441	1.3979	-1.02957	0.701018	1.09369	0.956225	-0.0300866	0.0410803	-0.22808	0.396767	-0.30715	0	0	-0.0183845	-0.0928567	0.187978	0.490348	-0.172849	0	0	-0.556945	0.23633	-0.0146962	-0.0254871	-0.312812	-0.0710766	1.33011	1.5708	0	0	0.0204485	-0.203148	-0.0893012	1.00967	1.5708	0	0
15.32	2.66746	1.39723	-1.0306	0.701109	1.09359	0.956231	-0.031403	0.0418389	-0.227836	0.395558	-0.30742	0	0	-0.0182723	-0.093232	0.188506	0.491252	-0.173054	0	0	-0.556984	0.236338	-0.0157917	-0.0133098	-0.314673	-0.0648346	1.3235	1.56924	0	0	0.0308306	-0.205624	-0.0856477	1.0064	1.5708	0	0
15.33	2.67231	1.3968	-1.03362	0.701235	1.09351	0.956173	-0.0329381	0.042912	-0.226498	0.393926	-0.306728	0	0	-0.0181351	-0.0931772	0.188993	0.492373	-0.172958	0	0	-0.556447	0.235769	-0.0170359	-0.00047094	-0.316678	-0.0576552	1.31582	1.56557	0	0	0.041807	-0.208231	-0.0813176	1.002	1.5708	0	0
